<?xml version="1.0" encoding="UTF-8" standalone="no"?>
<svg width="397px" height="140px" viewBox="0 0 397 140" version="1.1" xmlns="http://www.w3.org/2000/svg" xmlns:xlink="http://www.w3.org/1999/xlink" xmlns:sketch="http://www.bohemiancoding.com/sketch/ns">
    <!-- Generator: Sketch 3.3.2 (12043) - http://www.bohemiancoding.com/sketch -->
    <title>Slice 1</title>
    <desc>Created with Sketch.</desc>
    <defs></defs>
    <g id="Page-1" stroke="none" stroke-width="1" fill="none" fill-rule="evenodd" sketch:type="MSPage">
        <g id="Group-Copy-11" sketch:type="MSLayerGroup">
            <g id="Group-+-for-the-web" fill="#FFFFFF" sketch:type="MSShapeGroup">
                <g id="Group">
                    <path d="M226.668105,90.4704461 C236.418105,84.3304461 253.403503,73.2023482 257.31073,72.1085982 C253.403503,78.089067 234.678105,91.9804461 227.228105,97.4604461 C225.088105,98.8104461 222.888105,100.820446 220.168105,100.430446 C217.258105,99.4004461 216.058105,95.4204461 217.828105,92.9204461 C223.388105,82.9704461 232.288105,81.1304461 226.668105,90.4704461 Z" id="Shape-Copy-14"></path>
                    <path d="M70.6284771,75.9675136 C69.8984771,78.9575136 67.8784771,81.4075136 66.2284771,83.9375136 C62.8098447,88.7756687 51.6603411,105.898056 49.4378738,107.712486 C46.9012076,109.78343 45.5123549,109.674787 46.1128979,106.907108 C46.6838123,104.275977 57.0986212,85.606842 61.9884771,77.7575136 C44.8584771,83.0775136 28.5284771,90.7075136 12.9184771,99.4875136 C-3.32152291,108.757514 -4.40152291,101.077514 10.5384771,93.1675136 C27.6084771,84.2275136 45.3984771,76.5075136 63.9984771,71.3475136 C66.9984771,70.0375136 70.9884771,72.6175136 70.6284771,75.9675136 Z" id="Shape-Copy-16"></path>
                    <path d="M269.154641,19.0907377 C271.418222,19.5342149 273.423014,21.5504396 273.163269,23.9675136 C272.433269,26.9575136 270.413269,29.4075136 268.763269,31.9375136 C257.733269,47.5475136 245.383269,62.1875136 234.783269,78.1075136 C227.979881,89.2746735 222.993269,98.6775136 221.393269,99.8375136 C217.813269,100.897514 214.133269,96.0075136 217.063269,93.1175136 C232.603269,70.4775136 249.983269,49.0975136 264.523269,25.7575136 C268.096756,20.3999637 268.28096,18.9195674 269.154641,19.0907377 Z" id="Shape-Copy-12"></path>
                    <path d="M299.52857,24.3411014 C299.037579,26.3521463 292.635722,31.758153 291.525948,33.4598064 C289.812462,33.4598064 293.717393,29.1232183 293.71739,25.5450379 C282.195919,29.1232182 271.21252,34.2550821 260.713385,40.1604247 C249.790519,46.3953366 239.345192,53.5315194 229.935654,61.8985425 C224.696176,66.566319 219.766089,71.6712792 215.979406,77.6169773 C214.977246,79.3791638 212.878765,80.5494709 210.854268,79.8903324 C208.74906,79.1504831 208.500202,76.2717967 209.784849,74.6912096 C215.454785,66.7815479 222.772568,60.2237927 230.38629,54.2310133 C239.392273,47.2831557 249.064122,41.2298432 259.11262,35.9096541 C270.593736,29.896697 282.559118,24.7043001 295.069297,21.2337343 C297.087068,20.352641 299.770703,22.0879239 299.52857,24.3411014 Z" id="Shape-Copy-13" transform="translate(254.271932, 50.538218) scale(-1, 1) rotate(34.000000) translate(-254.271932, -50.538218) "></path>
                    <path d="M278.55635,78.0809718 C281.59635,76.5709718 285.08635,75.2609718 288.46635,76.4809718 C291.57635,77.1609718 294.45635,80.3909718 293.13635,83.6809718 C291.09635,87.5409718 287.69635,90.4409718 284.52635,93.3509718 C280.38635,96.7409718 276.07635,100.270972 270.87635,101.820972 C267.50635,103.160972 264.47635,99.1709718 265.07635,96.0609718 C265.90635,92.6209718 267.99635,89.6809718 269.73635,86.6509718 C272.280519,82.8900127 278.03635,78.0809718 278.55635,78.0809718 Z M270.17657,96.9435729 C277.131522,94.2658519 285.964827,86.2918948 287.238991,83.6577001 C289.142481,79.722441 283.867577,79.056628 282.02635,79.7009718 C278.952638,80.7766282 263.221618,99.6212939 270.17657,96.9435729 Z" id="Shape-Copy-9"></path>
                    <path d="M282.755271,94.8426895 C289.305271,93.5026895 299.224839,87.4926896 304.354839,83.4226896 C305.414839,82.6926896 306.604839,81.4026896 308.034839,81.9926896 C308.656015,82.5261696 309.271849,83.0756714 309.882343,83.6372921 C310.107234,83.8441785 310.242952,84.5940218 310.085969,84.7589566 C307.850218,87.107955 305.495274,89.374107 303.934839,92.2426896 C310.324839,89.7526896 314.964839,84.5026896 320.384839,80.5126896 C322.764839,78.8026896 325.374839,76.8226896 328.474839,77.0126896 C331.394839,77.6426896 333.144839,81.6726896 331.054839,84.0426896 C328.094839,87.5526896 324.971352,92.2426901 324.971352,94.8426895 C324.967871,94.9057306 324.965529,94.9676941 324.964072,95.0285957 C324.960485,95.1785813 324.962989,95.3221266 324.971354,95.4594684 C325.223035,99.5921623 330.780373,98.1079645 335.327881,97.4583206 C355.947881,93.8983206 376.494839,84.3126896 396.144839,77.2826896 C395.904839,77.7326896 395.434839,78.6226896 395.204839,79.0626896 C376.434839,85.7826896 358.714839,95.3026896 339.494839,100.73269 C333.474839,102.01269 325.794839,104.18269 320.814839,99.3326896 C317.094839,95.3326896 319.194839,89.5826896 321.434839,85.4126896 C315.674839,90.3526896 310.314839,96.2926896 303.054839,99.0126896 C294.061789,100.732689 299.394839,92.8426896 300.434839,90.3126896 C296.624839,93.3226896 283.072223,99.1961727 270.587172,101.916172 C268.827172,102.586172 284.385271,92.8426895 282.755271,94.8426895 Z" id="Shape-Copy-8"></path>
                    <path d="M261.846494,58.5104011 C267.546949,58.0563642 278.952563,58.2670075 284.571138,56.7157151 C284.656918,57.0310184 268.41706,62.2940399 263.956512,63.813802 C262.845274,64.0912689 260.447093,63.7515632 259.8827,61.6066019 C259.318308,59.4616405 261.846494,58.5104011 261.846494,58.5104011 Z" id="Shape-Copy-17" transform="translate(272.186007, 60.306342) rotate(-36.000000) translate(-272.186007, -60.306342) "></path>
                    <path d="M274.867874,83.9053456 C267.217874,85.9653456 255.517808,98.4104747 247.737808,100.070475 C243.937808,101.000475 238.197808,97.6704747 240.547808,93.3104747 C244.297808,86.4504747 248.655056,79.5931307 254.249002,74.0619146 C257.672082,70.677221 260.279364,71.131034 261.113646,75.0084845 C251.570853,84.4855801 248.887808,91.1904747 247.557808,93.5404747 C254.927808,92.4604747 280.250613,74.4754577 282.120613,77.5554577 C283.046625,78.7954582 276.677874,83.1953456 274.867874,83.9053456 Z" id="Shape-Copy-10"></path>
                    <path d="M180.596906,30.9675136 C179.866906,33.9575136 177.846906,36.4075136 176.196906,38.9375136 C165.166906,54.5475136 152.816906,69.1875136 142.216906,85.1075136 C155.286906,75.6375136 169.206906,67.2375136 183.886906,60.5275136 C187.526906,58.9775136 192.716906,56.5975136 195.736906,60.5175136 C197.826906,62.2775136 195.386906,64.3875136 194.386906,66.0375136 C187.516906,74.4575136 180.636906,82.9375136 175.016906,92.2775136 C184.766906,86.1375136 205.466906,73.2775136 205.986906,73.2775136 C209.026906,71.7675136 212.516906,70.4575136 215.896906,71.6775136 C219.006906,72.3575136 221.886906,75.5875136 220.566906,78.8775136 C218.526906,82.7375136 215.126906,85.6375136 211.956906,88.5475136 C207.816906,91.9375136 203.506906,95.4675136 198.306906,97.0175136 C194.936906,98.3575136 191.906906,94.3675136 192.506906,91.2575136 C193.336906,87.8175136 195.426906,84.8775136 197.166906,81.8475136 C190.086906,87.7875136 183.026906,93.7875136 175.576906,99.2675136 C173.436906,100.617514 171.236906,102.627514 168.516906,102.237514 C165.606906,101.207514 164.406906,97.2275136 166.176906,94.7275136 C171.736906,84.7775136 178.586906,75.6175136 185.196906,66.3575136 C165.566906,74.7675136 148.086906,87.6375136 133.156906,102.827514 C131.756906,104.217514 130.426906,105.677514 128.826906,106.837514 C125.246906,107.897514 121.566906,103.007514 124.496906,100.117514 C140.036906,77.4775136 157.416906,56.0975136 171.956906,32.7575136 C154.826906,38.0775136 138.496906,45.7075136 122.886906,54.4875136 C106.646906,63.7575136 91.1169057,74.3675136 77.1269057,86.8075136 C69.3369057,93.7475136 62.0069057,101.337514 56.3769057,110.177514 C54.8869057,112.797514 51.7669057,114.537514 48.7569057,113.557514 C45.6269057,112.457514 45.2569057,108.177514 47.1669057,105.827514 C55.5969057,94.0675136 66.4769057,84.3175136 77.7969057,75.4075136 C91.1869057,65.0775136 105.566906,56.0775136 120.506906,48.1675136 C137.576906,39.2275136 155.366906,31.5075136 173.966906,26.3475136 C176.966906,25.0375136 180.956906,27.6175136 180.596906,30.9675136 Z M196.644299,91.3924949 C194.328955,97.7203535 217.752309,79.7350132 215.886906,76.6875136 C214.021502,73.640014 211.296372,74.9565957 209.456906,75.8975136 C208.185788,76.5477116 198.704299,85.7624949 196.644299,91.3924949 Z" id="Shape-Copy-11"></path>
                </g>
                <polygon id="Star-1-Copy" transform="translate(356.634704, 72.631693) rotate(37.000000) translate(-356.634704, -72.631693) " points="356.464096 75.7995378 351.523348 78.70276 353.212882 73.8945868 349.498182 70.4894197 354.398983 70.4894196 356.464096 65.4132964 358.398391 70.4894196 363.430011 70.4894197 359.622623 73.8945868 361.039047 79.3215202 "></polygon>
            </g>
            <path d="M197.183041,94.1180445 C205.59845,92.6651418 227.532342,78.9909527 230.571275,74.1748044 C230.636837,74.0708996 235.024854,74.1617157 230.571274,78.990953 C223.785657,81.749683 208.414278,95.3966265 201.35,97.3924136 C195.33,98.6724136 192.423041,94.7980445 197.183041,94.1180445 Z" id="Shape-Copy-21" fill="#FFFFFF" sketch:type="MSShapeGroup"></path>
            <g id="for-the-web-copy" transform="translate(191.000000, 127.000000)" sketch:type="MSShapeGroup">
                <g id="web-+-the-+-for" transform="translate(18.000000, 0.000000)">
                    <g id="web" transform="translate(65.000000, 1.000000)">
                        <g id="Group" transform="translate(0.000000, 3.000000)">
                            <rect id="Rectangle-52-Copy-12" fill="#FFFFFF" x="0" y="0" width="1" height="7"></rect>
                            <rect id="Rectangle-52-Copy-15" fill="#FFFFFF" x="3" y="3" width="1" height="4"></rect>
                            <rect id="Rectangle-52-Copy-13" fill="#FFFFFF" x="6" y="0" width="1" height="7"></rect>
                            <rect id="Rectangle-52-Copy-14" fill="#FFFFFF" transform="translate(3.500000, 6.500000) rotate(-270.000000) translate(-3.500000, -6.500000) " x="3" y="3" width="1" height="7"></rect>
                            <rect id="Rectangle-52-Copy-16" fill="#3A0839" x="3" y="6" width="1" height="1"></rect>
                        </g>
                        <g id="Group" transform="translate(19.000000, 0.000000)" fill="#FFFFFF">
                            <rect id="Rectangle-52-Copy-8" x="0" y="0" width="1" height="10"></rect>
                            <rect id="Rectangle-52-Copy-9" x="5" y="3" width="1" height="7"></rect>
                            <rect id="Rectangle-52-Copy-10" transform="translate(3.000000, 3.500000) rotate(-270.000000) translate(-3.000000, -3.500000) " x="2.5" y="0.5" width="1" height="6"></rect>
                            <rect id="Rectangle-52-Copy-11" transform="translate(3.000000, 9.500000) rotate(-270.000000) translate(-3.000000, -9.500000) " x="2.5" y="6.5" width="1" height="6"></rect>
                        </g>
                    </g>
                    <g id="the" transform="translate(35.000000, 1.000000)" fill="#FFFFFF">
                        <g id="Group-Copy-5" transform="translate(8.000000, 0.000000)">
                            <rect id="Rectangle-52-Copy-8" x="0" y="0" width="1" height="10"></rect>
                            <rect id="Rectangle-52-Copy-9" x="5" y="3" width="1" height="7"></rect>
                            <rect id="Rectangle-52-Copy-10" transform="translate(3.000000, 3.500000) rotate(-270.000000) translate(-3.000000, -3.500000) " x="2.5" y="0.5" width="1" height="6"></rect>
                        </g>
                        <g id="Group-Copy-7" transform="translate(17.000000, 2.000000)">
                            <rect id="Rectangle-52-Copy-8" x="0" y="1" width="1" height="7"></rect>
                            <rect id="Rectangle-52-Copy-10" transform="translate(3.000000, 1.500000) rotate(-270.000000) translate(-3.000000, -1.500000) " x="2.5" y="-1.5" width="1" height="6"></rect>
                            <rect id="Rectangle-52-Copy-18" transform="translate(3.000000, 4.500000) rotate(-270.000000) translate(-3.000000, -4.500000) " x="2.5" y="1.5" width="1" height="6"></rect>
                            <rect id="Rectangle-52-Copy-17" transform="translate(3.000000, 7.500000) rotate(-270.000000) translate(-3.000000, -7.500000) " x="2.5" y="4.5" width="1" height="6"></rect>
                        </g>
                        <g id="Group-Copy-6">
                            <rect id="Rectangle-52-Copy-8" x="1" y="0" width="1" height="10"></rect>
                            <rect id="Rectangle-52-Copy-10" transform="translate(3.000000, 3.500000) rotate(-270.000000) translate(-3.000000, -3.500000) " x="2.5" y="0.5" width="1" height="6"></rect>
                        </g>
                    </g>
                    <g id="for" fill="#FFFFFF">
                        <g id="Group-Copy-9" transform="translate(8.000000, 3.000000)">
                            <g>
                                <rect id="Rectangle-52-Copy-8" x="0" y="1" width="1" height="7"></rect>
                                <rect id="Rectangle-52-Copy-9" x="3" y="1" width="1" height="7"></rect>
                                <rect id="Rectangle-52-Copy-10" transform="translate(2.000000, 1.500000) rotate(-270.000000) translate(-2.000000, -1.500000) " x="1.5" y="-0.5" width="1" height="4"></rect>
                                <rect id="Rectangle-52-Copy-20" transform="translate(2.000000, 7.500000) rotate(-270.000000) translate(-2.000000, -7.500000) " x="1.5" y="5.5" width="1" height="4"></rect>
                            </g>
                        </g>
                        <g id="Group" transform="translate(15.000000, 3.000000)">
                            <rect id="Rectangle-52-Copy-8" x="0" y="1" width="1" height="7"></rect>
                            <rect id="Rectangle-52-Copy-22" x="11" y="1" width="1" height="4"></rect>
                            <rect id="Rectangle-52-Copy-23" x="5" y="4" width="1" height="4"></rect>
                            <rect id="Rectangle-52-Copy-10" transform="translate(6.000000, 1.500000) rotate(-270.000000) translate(-6.000000, -1.500000) " x="5.5" y="-4.5" width="1" height="12"></rect>
                            <rect id="Rectangle-52-Copy-21" transform="translate(6.000000, 4.500000) rotate(-270.000000) translate(-6.000000, -4.500000) " x="5.5" y="-1.5" width="1" height="12"></rect>
                        </g>
                        <g id="Group-Copy-8">
                            <rect id="Rectangle-52-Copy-8" x="1" y="1" width="1" height="10"></rect>
                            <rect id="Rectangle-52-Copy-10" transform="translate(2.000000, 4.500000) rotate(-270.000000) translate(-2.000000, -4.500000) " x="1.5" y="2.5" width="1" height="4"></rect>
                            <rect id="Rectangle-52-Copy-19" transform="translate(3.500000, 1.500000) rotate(-270.000000) translate(-3.500000, -1.500000) " x="3" y="-1" width="1" height="5"></rect>
                        </g>
                    </g>
                    <rect id="Rectangle-52-Copy-8" fill="#FFFFFF" x="75" y="4" width="1" height="7"></rect>
                    <rect id="Rectangle-52-Copy-10" fill="#FFFFFF" transform="translate(78.000000, 4.500000) rotate(-270.000000) translate(-78.000000, -4.500000) " x="77.5" y="1.5" width="1" height="6"></rect>
                    <rect id="Rectangle-52-Copy-18" fill="#FFFFFF" transform="translate(78.000000, 7.500000) rotate(-270.000000) translate(-78.000000, -7.500000) " x="77.5" y="4.5" width="1" height="6"></rect>
                    <rect id="Rectangle-52-Copy-17" fill="#FFFFFF" transform="translate(78.000000, 10.500000) rotate(-270.000000) translate(-78.000000, -10.500000) " x="77.5" y="7.5" width="1" height="6"></rect>
                </g>
                <circle id="Oval-60-Copy-2" fill="#FFFFFF" cx="123" cy="8" r="1"></circle>
                <circle id="Oval-60-Copy-3" fill="#FFFFFF" cx="1" cy="8" r="1"></circle>
                <rect id="Rectangle-85" fill="#FFFFFF" x="0" y="7" width="2" height="2"></rect>
                <rect id="Rectangle-85-Copy" fill="#FFFFFF" x="122" y="7" width="2" height="2"></rect>
            </g>
            <g id="Group-Copy-10" transform="translate(282.000000, 130.000000)"></g>
        </g>
    </g>
</svg>