<?xml version="1.0" encoding="UTF-8" standalone="no"?>
<svg width="100px" height="100px" viewBox="0 0 100 100" version="1.1" xmlns="http://www.w3.org/2000/svg" xmlns:xlink="http://www.w3.org/1999/xlink" xmlns:sketch="http://www.bohemiancoding.com/sketch/ns">
    <!-- Generator: Sketch 3.3.3 (12072) - http://www.bohemiancoding.com/sketch -->
    <title>bouncy-easing</title>
    <desc>Created with Sketch.</desc>
    <defs></defs>
    <g id="Page-1" stroke="none" stroke-width="1" fill="none" fill-rule="evenodd" sketch:type="MSPage">
        <path d="M0,100 C6.50461245,96.8525391 12.6278439,88.3497543 16.6678547,6.59194921e-16 C16.6678547,-1.79459817 31.6478577,115.871587 44.1008572,6.59194921e-16 C44.1008572,-0.762447191 54.8688736,57.613472 63.0182497,6.59194921e-16 C63.0182497,-0.96434046 70.1500549,29.0348701 76.4643231,6.59194921e-16 C76.4643231,6.59194921e-16 81.9085007,16.5050125 85.8902733,6.59194921e-16 C85.8902733,-0.762447191 89.4362183,8.93311024 92.132216,6.59194921e-16 C92.132216,-0.156767385 95.0157166,4.59766248 96.918051,6.59194921e-16 C96.918051,-0.156767385 98.7040751,1.93815588 100,6.59194921e-16" id="bouncy-easing-path" stroke="#FF5959" stroke-width="0.5" opacity="0.467000933" sketch:type="MSShapeGroup"></path>
    </g>
</svg>