<?xml version="1.0" encoding="UTF-8" standalone="no"?>
<svg width="100px" height="100px" viewBox="0 0 100 100" version="1.1" xmlns="http://www.w3.org/2000/svg" xmlns:xlink="http://www.w3.org/1999/xlink">
    <g id="helpers" transform="translate(-50.000000, -50.000000)" stroke="#979797">
        <rect id="rect" stroke-width="0.2" x="50" y="50" width="100" height="100" fill="none"></rect>
        <path d="M100,0 L100,200" id="horizontal-center-guide" stroke-width="0.1" fill="#000000"></path>
        <path d="M0,100 L205,100" id="vertical-center-guide" stroke-width="0.1" fill="#000000"></path>
    </g>
    <path d="M0,0 C0,0 6.86480761,-0.0379572748 16.3642461,0 C18.3420122,1.41053954 17.7461573,2.35969773 21.4635541,-0.0513416099 C22.4315542,-0.0513416099 22.0894527,3.40794982 24.4702692,-0.0487702243 C25.7707024,-0.00261653189 28.6047459,-58.2943405 30.7671486,-0.030428619 C32.779686,25.2238052 34.3119125,2.50565299 34.7164192,0 C34.7164192,-2.46694112 37.8332109,-47.1225164 38.867691,0 C40.0878906,15.4553694 40.570773,1.89762474 42.8020554,0 L100,0" id="property-curve" stroke="#000000" stroke-width="0.5" fill="none"></path>
</svg>