<?xml version="1.0" encoding="UTF-8" standalone="no"?>
<svg width="100px" height="100px" viewBox="0 0 100 100" version="1.1" xmlns="http://www.w3.org/2000/svg" xmlns:xlink="http://www.w3.org/1999/xlink">
    <g id="helpers" transform="translate(-50.000000, -50.000000)" stroke="#979797" stroke-width="0.2">
        <rect id="rect" x="50" y="50" width="100" height="100" fill="none"></rect>
        <path d="M100,0 L100,200" id="horizontal-center-guide" fill="#000000"></path>
        <path d="M0,100 L205,100" id="vertical-center-guide" fill="#000000"></path>
    </g>
    <path d="M0,100 C50,100 50,100 50,50 C50,0 50,0 100,0" id="scale-property-curve" stroke="#000000" stroke-width="0.5" fill="none"></path>
    <path d="M0,100 C50,100 50,100 50,50 L50,0 L50,50 C50,72.6779468 52.8514147,105.033368 57.1929207,112.031548 C62.851963,121.153496 67.6802979,100 67.6802979,100 C67.6802979,100 70.6599579,81.7189484 74.2423482,100 C74.2423477,100 77.2498016,111.29863 80.7531832,100 C82.0066376,97.3673859 82.9997787,94.8164368 85.6327322,100 C87.1416016,103.389648 88.1576157,100 100,100" id="angle-property-curve" stroke="#000000" stroke-width="0.5" fill="none"></path>
    <path d="M0,100 C6.69604123,100 36.7852869,100.120092 41.8079414,100 C49.0709648,100 50,93.3039588 50,75 L53,75 C53.7799492,90.208985 56.9783087,106.849836 60.1929207,112.031548 C65.851963,121.153496 70.6802979,100 70.6802979,100 C70.6802979,100 73.6599579,81.7189484 77.2423482,100 C77.2423477,100 80.2498016,111.29863 83.7531832,100 C85.0066376,97.3673859 85.9997787,94.8164368 88.6327322,100 C90.1416016,103.389648 87.9330063,100 100,100" id="extreme-easing" stroke="#000000" stroke-width="0.5" fill="none"></path>
</svg>