<?xml version="1.0" encoding="UTF-8" standalone="no"?>
<svg width="32px" height="32px" viewBox="0 0 32 32" version="1.1" xmlns="http://www.w3.org/2000/svg" xmlns:xlink="http://www.w3.org/1999/xlink" xmlns:sketch="http://www.bohemiancoding.com/sketch/ns">
    <!-- Generator: Sketch 3.3.2 (12043) - http://www.bohemiancoding.com/sketch -->
    <title>Untitled 7</title>
    <desc>Created with Sketch.</desc>
    <defs></defs>
    <g id="Page-1" stroke="none" stroke-width="1" fill="none" fill-rule="evenodd" sketch:type="MSPage">
        <path d="M14.3725218,0.0815765895 C16.5768477,-0.139962666 18.8283993,0.0892158742 20.936885,0.775362534 C24.0864182,1.78791499 26.892871,3.81857576 28.8569018,6.47843578 C30.6848117,8.92370136 31.7730848,11.9092727 31.9647653,14.9559583 C32.1710302,18.0269508 31.4682016,21.156974 29.9479529,23.835585 C28.763145,25.9606951 27.0685781,27.7913455 25.0732951,29.1789174 C23.1856586,30.4678731 21.0285583,31.3720866 18.7721453,31.7533564 C16.3386361,32.1943514 13.8030362,32.0373989 11.4334205,31.3352791 C8.83601054,30.5637114 6.44208755,29.1157197 4.55236765,27.173258 C2.56889098,25.148153 1.13406507,22.5862148 0.464572243,19.8298219 C-0.188947207,17.1921853 -0.151444496,14.3885678 0.567357448,11.7682932 C1.05558718,9.97653368 1.86397893,8.27366768 2.93488965,6.75761691 C4.09469569,5.13461616 5.54966194,3.7213485 7.21367108,2.62059702 C9.35202006,1.21844104 11.8265044,0.330200582 14.3725218,0.0815765895 L14.3725218,0.0815765895 Z M13.4193548,3.90957818 C15.0445683,6.07691409 16.4497868,8.41199828 17.6748843,10.8387097 C19.9697077,9.81812353 22.1290967,8.37605222 23.7419355,6.39338038 C22.4666516,5.3403723 20.98306,4.55378794 19.4087203,4.09071813 C17.4686389,3.52051495 15.3889981,3.46130968 13.4193548,3.90957818 L13.4193548,3.90957818 Z M5.85870045,8.99765171 C5.07437428,10.1896725 4.43245771,11.4982277 4.12903226,12.8924286 C7.95548481,12.9787764 11.8026905,12.5498455 15.483871,11.5108639 C14.9142326,10.4016809 14.2615817,9.33532073 13.5924713,8.28159684 C12.7687857,7.02077864 11.8907125,5.79084909 10.9060111,4.64516129 C8.86790803,5.61955753 7.11390856,7.14714127 5.85870045,8.99765171 L5.85870045,8.99765171 Z M19.0967742,13.254258 C19.3894297,13.9053839 19.6714043,14.5607379 19.9498187,15.218206 C20.339314,15.1745157 20.7245369,15.096296 21.1154563,15.0582432 C23.7116168,14.735499 26.3519249,14.9426754 28.9032258,15.483871 C28.7864484,12.8687971 27.8087939,10.3129164 26.1746227,8.25806452 C24.2442356,10.4376451 21.7677007,12.0936472 19.0967742,13.254258 L19.0967742,13.254258 Z M3.61576017,16.0598654 C3.54976145,19.0305495 4.6300563,22.0053999 6.56486091,24.2580645 C7.72713313,22.4859314 9.17493665,20.906844 10.8047577,19.5541342 C12.6471641,18.0375438 14.7681546,16.857742 17.0322581,16.1022244 C16.7939679,15.5508632 16.5674881,14.9939468 16.309051,14.4516129 C12.2136567,15.7279376 7.89247729,16.1598604 3.61576017,16.0598654 L3.61576017,16.0598654 Z M20.6451613,17.7283283 C21.6284237,20.5366472 22.4250816,23.4089854 23.0222161,26.3225806 C25.8011884,24.4340076 27.7827851,21.4329191 28.3870968,18.1458773 C25.8557344,17.5761044 23.2238926,17.3648403 20.6451613,17.7283283 L20.6451613,17.7283283 Z M8.77419355,26.3478654 C10.6049943,27.7568131 12.8130931,28.6492907 15.0894119,28.8480993 C16.9682451,29.0353827 18.8784038,28.7386105 20.6451613,28.0622292 C20.0534576,24.8438354 19.2327298,21.6701015 18.1781051,18.5806452 C14.2742531,19.8887479 10.9321716,22.7592267 8.77419355,26.3478654 L8.77419355,26.3478654 Z" id="Shape" fill="#FF00C5" sketch:type="MSShapeGroup"></path>
    </g>
</svg>