<?xml version="1.0" encoding="UTF-8" standalone="no"?>
<svg width="32px" height="32px" viewBox="0 0 32 32" version="1.1" xmlns="http://www.w3.org/2000/svg" xmlns:xlink="http://www.w3.org/1999/xlink" xmlns:sketch="http://www.bohemiancoding.com/sketch/ns">
    <!-- Generator: Sketch 3.3.2 (12043) - http://www.bohemiancoding.com/sketch -->
    <title>Untitled 7</title>
    <desc>Created with Sketch.</desc>
    <defs></defs>
    <g id="Page-1" stroke="none" stroke-width="1" fill="none" fill-rule="evenodd" sketch:type="MSPage">
        <path d="M10.064,29.838 C6.356,29.838 2.905,28.717 0,26.794 C0.514,26.856 1.036,26.889 1.566,26.889 C4.642,26.889 7.473,25.806 9.72,23.989 C6.847,23.934 4.423,21.976 3.587,19.284 C3.987,19.363 4.399,19.406 4.822,19.406 C5.421,19.406 6,19.323 6.551,19.168 C3.548,18.546 1.284,15.807 1.284,12.524 L1.284,12.439 C2.169,12.947 3.182,13.251 4.258,13.286 C2.496,12.072 1.337,9.997 1.337,7.647 C1.337,6.405 1.661,5.241 2.226,4.241 C5.466,8.339 10.303,11.037 15.76,11.319 C15.648,10.823 15.59,10.306 15.59,9.775 C15.59,6.033 18.529,3 22.155,3 C24.043,3 25.749,3.823 26.946,5.14 C28.442,4.836 29.847,4.272 31.116,3.496 C30.626,5.078 29.585,6.406 28.228,7.245 C29.558,7.08 30.822,6.716 32,6.176 C31.12,7.535 30.007,8.729 28.724,9.684 C28.738,9.975 28.744,10.267 28.744,10.56 C28.743,19.514 22.139,29.838 10.064,29.838" id="twitter-icon" fill="#1B8FE6" sketch:type="MSShapeGroup"></path>
    </g>
</svg>