<?xml version="1.0" encoding="UTF-8" standalone="no"?>
<svg width="400px" height="274px" viewBox="0 0 400 274" version="1.1" xmlns="http://www.w3.org/2000/svg" xmlns:xlink="http://www.w3.org/1999/xlink" xmlns:sketch="http://www.bohemiancoding.com/sketch/ns">
    <!-- Generator: Sketch 3.3.2 (12043) - http://www.bohemiancoding.com/sketch -->
    <title>Untitled 7</title>
    <desc>Created with Sketch.</desc>
    <defs></defs>
    <g id="Page-1" stroke="none" stroke-width="1" fill="none" fill-rule="evenodd" sketch:type="MSPage">
        <g id="Group-Copy-2" sketch:type="MSLayerGroup" transform="translate(1.000000, 1.000000)">
            <path d="M205.605263,64.2352941 C208.14868,64.2352941 210.210526,62.1679031 210.210526,59.6176471 C210.210526,57.067391 208.14868,55 205.605263,55 C203.061847,55 201,57.067391 201,59.6176471 C201,62.1679031 203.061847,64.2352941 205.605263,64.2352941 Z" id="Oval-7" stroke="#ECECEC" stroke-width="2" sketch:type="MSShapeGroup"></path>
            <g id="Oval-3-+-Oval-12" transform="translate(365.000000, 98.000000)" stroke="#ECECEC" stroke-width="1.3" sketch:type="MSShapeGroup">
                <path d="M1.97368421,3.95798319 C3.0637199,3.95798319 3.94736842,3.07195848 3.94736842,1.9789916 C3.94736842,0.886024718 3.0637199,0 1.97368421,0 C0.88364852,0 0,0.886024718 0,1.9789916 C0,3.07195848 0.88364852,3.95798319 1.97368421,3.95798319 Z" id="Oval-3"></path>
                <path d="M1.97368421,18.4705882 C3.0637199,18.4705882 3.94736842,17.5845635 3.94736842,16.4915966 C3.94736842,15.3986298 3.0637199,14.512605 1.97368421,14.512605 C0.88364852,14.512605 0,15.3986298 0,16.4915966 C0,17.5845635 0.88364852,18.4705882 1.97368421,18.4705882 Z" id="Oval-4"></path>
            </g>
            <g id="Oval-3-+-Oval-13" transform="translate(0.000000, 98.000000)" stroke="#ECECEC" stroke-width="1.3" sketch:type="MSShapeGroup">
                <path d="M1.97368421,3.95798319 C3.0637199,3.95798319 3.94736842,3.07195848 3.94736842,1.9789916 C3.94736842,0.886024718 3.0637199,0 1.97368421,0 C0.88364852,0 0,0.886024718 0,1.9789916 C0,3.07195848 0.88364852,3.95798319 1.97368421,3.95798319 Z" id="Oval-3"></path>
                <path d="M1.97368421,18.4705882 C3.0637199,18.4705882 3.94736842,17.5845635 3.94736842,16.4915966 C3.94736842,15.3986298 3.0637199,14.512605 1.97368421,14.512605 C0.88364852,14.512605 0,15.3986298 0,16.4915966 C0,17.5845635 0.88364852,18.4705882 1.97368421,18.4705882 Z" id="Oval-4"></path>
            </g>
            <path d="M119.315789,132.045053 L119.315789,86" id="Path-26" stroke="#FEFEFE" stroke-width="2" sketch:type="MSShapeGroup"></path>
            <g id="Shape-6-+-Shape-5-+-Shape-9" transform="translate(306.000000, 166.000000)" fill="#FEFEFE" sketch:type="MSShapeGroup">
                <path d="M47.2299867,1.40302074 C48.1995271,0.231997004 49.8807899,-0.115650668 51.2933411,0.352758827 C50.5707249,1.22736718 49.5176662,1.71041447 48.7478439,2.53744999 C46.805132,4.52453089 44.8587888,6.52259015 43.1738948,8.74753525 C44.9495698,7.55821426 46.9866938,6.40914722 49.2017485,6.7202004 C50.3238008,6.80070828 51.5475277,7.56553316 51.6092588,8.79876754 C51.8089768,10.5333464 50.5344126,11.9751694 49.2162735,12.8936912 C47.1609932,14.2842819 44.7244331,15.1625497 42.2442981,15.279652 C41.6415127,15.2320792 40.8281156,15.3418627 40.4904105,14.7124374 C39.8839939,13.7280456 38.9616597,12.8863723 38.721998,11.7153485 C39.0052345,11.0054154 39.7423757,10.7346162 40.3887359,10.4711358 C40.0510308,10.9541831 39.6915383,11.426252 39.3429396,11.9019804 C41.2747577,13.047388 43.6568493,12.7509727 45.7448107,12.2715848 C47.5785855,11.7373052 49.6193408,10.7602323 50.3238008,8.83536203 C50.6832933,7.69361388 49.2925294,7.23252329 48.4210325,7.41549575 C45.8355916,7.64604105 43.1230575,9.21594474 42.0845236,11.6824135 C41.125877,11.1298367 41.0677772,9.90026174 41.6269878,9.01833449 C43.1085325,6.22251531 45.1347629,3.75238712 47.2299867,1.40302074 L47.2299867,1.40302074 Z" id="Shape-6"></path>
                <path d="M25.7348538,10.596663 C26.7879126,9.43661757 28.3420821,8.6351982 29.9253015,8.69374939 C30.6588114,8.94991083 31.2942779,9.48419041 31.7409201,10.1209346 C31.5702519,11.1272831 30.5680305,11.6359465 29.7582646,12.0641021 C28.4001819,12.7850136 26.8677998,13.0265372 25.3572051,13.1692557 C25.5787106,13.7620865 25.6985414,14.5012952 26.3340079,14.8013701 C27.5831535,15.4637304 29.0683295,14.9770236 30.3029501,14.5086141 C32.6051545,13.5205629 34.8311029,12.1555883 36.4143223,10.164848 C36.1565045,9.69277901 35.9023179,9.21705062 35.6553938,8.73766278 C36.501472,9.00114312 37.8413985,9.65252507 37.2676631,10.775976 C36.1746607,12.8216081 34.1230117,14.1390098 32.1694061,15.2624607 C30.4009936,16.1553663 28.3493445,17.0921853 26.3412704,16.5176517 C24.8597256,16.0163072 24.4167147,14.2597716 24.4239771,12.8508837 C24.2496778,12.7118246 23.9047102,12.4263876 23.7304108,12.2873285 C24.8306757,12.3788147 25.1066497,11.2443855 25.7348538,10.596663 L25.7348538,10.596663 Z M26.0979775,12.1226533 C27.5214225,11.5261631 29.075592,10.9516295 30.0378698,9.66350342 C28.4837003,9.9965133 27.1582987,10.9626079 26.0979775,12.1226533 L26.0979775,12.1226533 Z" id="Shape-5"></path>
                <path d="M85.7381874,10.7813151 C87.7716802,10.9862442 90.033941,11.579075 91.2867178,13.3429295 C91.9802841,14.3382997 92.4596074,15.9630951 91.2467742,16.7754929 C90.9344878,14.7079041 88.8138453,13.9321008 87.0381703,13.5954315 C83.3306772,12.9037956 76.6818813,13.3722049 73.5989615,13.4746697 C70.5160418,13.5771345 51.3213214,18.3893099 40.7326338,22.5757198 C40.07237,22.8527162 39.3727771,23.0677832 38.7430642,23.4145411 C38.6074061,23.4892427 35.9906409,24.5069306 35.8602029,24.5615357 C30.1131999,26.9673966 24.4740645,29.6300147 18.6474492,31.8377857 C16.9807113,32.3757247 15.1505678,33.2430142 13.407574,32.5477188 C12.4888709,32.1634767 11.4757558,31.4937975 11.3196126,30.4252383 C11.3522937,29.2359173 12.0676474,28.2076121 12.7721074,27.3073876 C14.7329755,24.939724 17.2494229,23.1136588 19.8820699,21.5693713 C18.6619742,19.8274735 17.8231584,17.8513709 17.296629,15.791101 C16.4323945,18.0782568 15.4519605,20.3580936 13.9922031,22.3268773 C13.5274048,22.8831135 12.9863504,23.5601116 12.2056344,23.5930467 C11.2106755,23.3954364 10.3101286,22.6415899 10.0341546,21.6425603 C9.46405037,19.8677274 9.13723902,18.0270245 8.67244066,16.2265755 C6.35934258,19.6481605 4.95768503,23.5784089 3.39625304,27.3732577 C1.72225269,27.563549 0.621987828,25.2837122 1.10857361,23.8126136 C2.52475611,18.7406171 4.32948099,13.7893823 5.9417503,8.77593694 C5.90543793,8.25995461 5.72387607,7.71835613 5.89817546,7.21335214 C7.19452713,6.66443477 8.6070784,8.28557075 7.8844622,9.52246458 C6.16688701,14.2504729 3.9881447,18.8394222 2.96413581,23.7943164 C4.84874791,20.7862492 6.47917341,17.5805717 8.77411531,14.8579415 C9.47494408,13.7967012 11.3559249,14.5139533 11.3668187,15.7398687 C11.7444673,17.7306091 11.984129,19.7542845 12.6014393,21.6901331 C13.2005934,21.1851291 13.7743289,20.6252334 14.1011403,19.897003 C15.1033617,17.811117 15.811453,15.5898313 16.4614444,13.3722051 C16.9153491,11.8279176 16.0583771,10.1116359 16.8173057,8.62955898 C17.5798655,7.8500963 18.5421433,8.60394283 19.2066597,9.10894682 C19.1412975,13.0501736 19.5189461,17.2036484 21.5851201,20.6508495 C25.0456891,19.000438 29.116306,17.6171662 32.8891614,19.0223947 C34.6394178,19.5859498 35.7832575,21.0899834 36.8544724,22.4988714 C38.3469118,21.6901326 39.309737,21.2912777 39.5061787,21.2110984 C50.7797887,16.6096836 62.2334794,12.7126093 74.3503935,11.1911732 C76.0957882,10.9679468 82.7206293,10.5837048 85.7381874,10.7813151 Z M29.1961932,19.7067116 C29.0763624,20.8155248 28.7241324,22.0158241 27.7001235,22.6123143 C25.5722185,23.9114188 22.7689034,23.6223223 20.6373672,22.4732552 C17.7360087,24.1419641 14.8564376,26.0668343 12.8447322,28.8077618 C12.3581464,29.5140355 11.708155,30.7619076 12.7466888,31.2998467 C14.5441512,31.8560829 16.3597698,30.9558584 18.0410326,30.3849844 C24.094305,27.9880451 29.9769092,25.1666098 35.9866068,22.6525682 C34.4723809,20.4422609 31.7671092,19.5859498 29.1961932,19.7067116 L29.1961932,19.7067116 Z M22.8342657,21.44495 C22.8015845,21.551074 22.7398535,21.7596626 22.7108036,21.8657867 C23.7311813,22.5793793 25.0493204,22.9489836 26.2694161,22.5940171 C27.3987308,22.1878182 27.6674424,20.8704165 28.0414598,19.8750463 C26.2585223,20.2043967 24.4792161,20.6654873 22.8342657,21.44495 L22.8342657,21.44495 Z" id="Shape-4"></path>
            </g>
            <g id="Shape-+-Shape-2-+-Shape-14" transform="translate(281.763158, 186.831933) rotate(12.000000) translate(-281.763158, -186.831933) translate(264.000000, 171.000000)" stroke="#FEFEFE" stroke-width="0.35" fill="#FEFEFE" sketch:type="MSShapeGroup">
                <path d="M11.8256738,12.9604244 C11.0486219,15.0232571 10.1194302,16.9707895 9.40208649,19.0794964 C10.9007455,18.6614381 12.4033566,17.1411143 13.9603385,17.8469384 C14.7522465,18.2283607 14.5317717,19.490949 14.1061351,20.1852968 C13.9550885,19.438463 13.7417123,18.4930398 13.0736576,18.5053161 C11.7534048,18.4687674 10.5171947,19.3019603 9.24115243,19.6685017 C8.44422455,22.1521118 7.80075151,25.0159189 8.52359047,27.7028779 C8.90388275,28.3254859 9.05983241,29.1807683 9.96229201,29.5708094 C10.8021667,29.4878597 11.5667184,28.9852286 12.3157138,28.4743017 C12.085864,29.2486511 11.8930705,30.1830962 11.2973168,30.554868 C10.7329303,31.0739393 10.0806737,30.6596027 9.49814687,30.4404801 C8.93941119,30.0142698 8.61915796,29.203152 8.2292492,28.3989049 C7.23345175,25.8287497 7.56716043,22.8638198 8.09328759,20.1882074 C7.09599735,20.6161479 1.10744384,24.105603 0.620775719,24.1121024 C0.752212681,23.7020052 0.668524936,22.9398394 1.08591823,22.8225695 C3.45741312,21.7216662 5.84748623,20.6892446 8.22381455,19.6092234 C8.73097565,17.5232754 9.26693271,15.4203454 10.128415,13.5691082 C10.4660983,12.7186404 11.2414357,12.7574734 11.8256738,12.9604244 L11.8256738,12.9604244 Z" id="Shape"></path>
                <path d="M17.0297409,7.64451647 C17.2320048,5.67597259 16.4741896,3.90868073 16.1144809,2.06637851 C15.9477149,1.42241011 16.186572,0.203836194 16.8434354,0.452346448 C17.4292294,0.635225625 17.8883302,1.30353939 18.1104679,2.01988966 C18.3721338,3.41568779 18.5393442,6.99531611 18.3758815,8.28535617 C18.343165,13.3246168 18.1764285,18.359948 18.003605,23.3940492 C18.8618509,20.5393017 19.7183879,17.6775936 20.8031893,14.956283 C21.2529472,14.5614593 21.245298,14.5303003 21.9642408,14.5839524 C22.4987892,15.3121666 23.1918649,16.0145321 23.2608233,17.1084264 C23.4201971,18.9830132 23.2635833,20.8665133 23.2619197,22.7449417 C23.2483252,23.6203846 23.5403593,24.4682825 23.4458189,25.343906 C22.6773668,25.3242295 21.6984728,24.6947583 21.7273842,23.51645 C21.6976341,20.8973675 22.1901341,18.2730158 21.8383093,15.6616164 C20.9215477,16.4752745 20.4444482,17.8309338 20.0024805,19.117616 C19.1146496,21.7811545 18.3283231,24.5164744 17.7896418,27.3415316 C17.413546,27.9303733 17.1131273,27.0129735 16.8016196,26.8044848 C17.1499272,25.2541068 17.0616805,23.6221237 17.10644,22.0252883 C17.1818145,18.067736 17.1843446,14.1081924 17.1370076,10.1513009 C17.1360845,10.0741359 17.0293001,8.40768093 17.0297409,7.64451647 L17.0297409,7.64451647 Z" id="Shape-2"></path>
                <path d="M33.5832694,18.2342849 C32.3602749,19.8056051 30.8206382,21.1171006 29.1183229,21.0593618 C28.0754369,20.9892504 26.9512116,20.3293785 26.4166962,18.9931377 C26.0651942,17.7888714 26.6055196,16.5268662 27.1255101,15.6071696 C28.0347673,14.1142093 29.4059154,12.7985896 30.8613079,13.2275063 C31.4887825,13.3141145 31.8693342,14.0812157 32.2469809,14.6998457 C31.2912442,17.2774706 29.0544135,18.8157971 27.0557907,17.9125974 C27.5147767,20.0901749 29.4843497,19.5622773 30.6376248,18.9725167 C32.0697774,18.0280749 33.7285181,16.89392 34.2920833,14.6338585 C34.7540086,13.9223196 34.5484883,17.1032152 33.5832694,18.2342849 Z M27.4072927,16.9640314 C28.6912916,17.1166268 29.9607656,16.130943 30.7538238,14.7369635 C30.6376248,14.1554513 30.381987,13.9162477 29.9898154,14.0234769 C28.8597801,14.3657855 28.0463871,15.6855294 27.4072927,16.9640314 L27.4072927,16.9640314 Z" id="Shape-10"></path>
            </g>
            <g id="Shape-+-Shape-11-+-Shape-13-+-Shape-15-+-Shape-17" transform="translate(242.473684, 197.873950) rotate(7.000000) translate(-242.473684, -197.873950) translate(228.000000, 186.000000)" fill="#FEFEFE" sketch:type="MSShapeGroup">
                <path d="M17.7776751,9.03703218 C18.0516329,9.0760814 18.3123334,9.16131835 18.5931222,9.29508029 C19.4415487,10.0616385 20.2090618,11.2495968 20.1003569,12.6259859 C19.8513273,14.9300037 18.3269226,16.4263406 16.8364988,17.2929799 C15.5469284,18.1303899 13.5753016,16.7861902 13.4647881,14.7185436 C13.5852622,13.2265763 14.0381711,11.2463763 16.8520511,9.8598446 C16.2808803,10.2646494 14.9298132,10.1672799 13.567932,11.144669 C13.7078224,10.7360696 13.6055213,9.93903197 14.0650818,9.86579844 C16.0182327,9.21727941 16.9573825,8.92010985 17.7776751,9.03703218 L17.7776751,9.03703218 Z M17.4593809,10.2149369 C17.4757524,10.4531048 17.6325855,10.7362375 17.6516674,10.9735262 C16.0885539,10.7780698 14.6338662,12.1559972 14.4270652,14.1868727 C14.3153302,14.9495612 14.9615768,15.4623859 15.4654388,15.3787734 C16.8903932,15.2837637 18.050392,13.9814695 18.7139858,12.4450442 C19.097045,11.6302674 19.0515463,10.4555737 18.4451005,9.70631722 C17.9953676,9.61002366 17.7518052,9.2799013 16.8685479,9.87660583 L17.4593809,10.2149369 L17.4593809,10.2149369 Z" id="Shape"></path>
                <path d="M27.0441823,5.97888504 C26.0807207,7.99216471 25.284423,10.28384 25.5005785,12.6173731 C26.6188925,12.7284436 27.2560089,11.5835383 27.7991666,10.6668003 C28.5027565,9.40305688 28.1023182,11.8518753 26.4269387,13.7132585 C25.5604146,13.7244781 24.7678882,12.8299381 24.7320051,11.849994 C24.6585284,9.40428268 25.7038884,7.14792032 25.8193048,4.72879815 C26.3418606,4.9829124 26.7736098,5.40141298 27.0441823,5.97888504 L27.0441823,5.97888504 Z" id="Shape-11" stroke="#FEFEFE" stroke-width="0.35"></path>
                <path d="M25.9040763,6.42669906 C25.7961964,6.7013384 25.6735948,7.03278145 25.4014331,7.13525415 C25.0304087,7.17046891 24.6365688,6.97343896 24.4383756,6.60731238 C24.0581085,5.96600405 23.7570432,5.27062532 23.4113496,4.6070658 C22.9404176,6.23396095 22.842428,7.9590315 22.6743968,9.6484872 C22.1029075,9.91584948 21.4846066,9.13418104 21.5078554,8.49284027 C21.4957562,6.31157606 22.0221013,6.18341014 22.1607669,8.27316735 C22.5222306,6.85993882 22.7740604,5.39713579 23.3091175,4.05057344 C23.4493235,3.54787531 24.1854288,3.61811588 24.3129803,4.10490721 C24.6471244,4.85419712 24.9359016,5.63239258 25.3490742,6.33239822 C25.509533,6.06277606 25.6554833,5.77421088 25.6973168,5.44689458 C25.8404756,4.50178631 26.2204991,5.47583953 25.9040763,6.42669906 L25.9040763,6.42669906 Z" id="Shape-13" stroke="#FEFEFE" stroke-width="0.35"></path>
                <path d="M10.0412554,1.04357948 C10.9711473,0.948474876 11.9481171,1.40216496 12.4343056,2.26697402 C13.2619697,3.67529446 12.3792566,4.1255783 11.9544929,2.80724742 C11.6120988,1.76556421 10.4683559,1.26982142 9.4936117,1.4437343 C7.85777941,1.75896575 6.76639198,3.16678244 6.02934538,4.74544914 C5.50171284,5.78332263 6.09983033,11.6976553 6.08488678,12.8648743 C5.69624537,12.6190354 5.13357563,12.3864446 5.14298686,11.8116338 C3.74551818,7.476351 4.81782689,4.72857378 5.48086311,3.86390702 C6.64512529,2.44143215 8.18835331,1.14150757 10.0412554,1.04357948 L10.0412554,1.04357948 L10.0412554,1.04357948 Z" id="Shape-15" stroke="#FEFEFE" stroke-width="0.35"></path>
                <path d="M6.39163039,11.2737653 C7.87897398,10.7313421 9.38289981,10.215425 10.9303883,9.89295301 C11.982937,9.71365591 13.2032969,9.70744784 14.0734702,10.4644287 C14.5577719,10.8935006 15.0193262,11.6863069 14.5181022,12.2883159 C14.0807747,11.2373168 12.9070107,11.1265576 11.9665549,11.1995767 C10.0044758,11.3580255 8.0985242,11.943235 6.2572235,12.6432509 C6.13801081,14.2640119 8.05707504,21.7945222 8.52864256,23.3324471 C7.96922963,23.545671 7.52004852,23.0007773 7.25610686,22.5513619 C6.70528638,21.4553702 5.12173246,14.2399057 5.17736289,13.0379781 C-0.19837376,15.2759513 -0.617849237,14.3169103 4.85289334,11.9127388 C5.01808593,11.8401433 5.97033941,11.5209087 6.39163039,11.2737653 L6.39163039,11.2737653 Z" id="Shape-14" stroke="#FEFEFE" stroke-width="0.35"></path>
            </g>
            <path d="M31,132.741458 L31,75 L74.8701429,112.305728 L74.8701429,121.410251 L31,83.8564361" id="Path-220" stroke="#FEFEFE" stroke-width="2" sketch:type="MSShapeGroup"></path>
            <path d="M53,93.8928633 L74.8187834,75 L74.8473736,132.885504" id="Path-221" stroke="#FEFEFE" stroke-width="2" sketch:type="MSShapeGroup"></path>
            <ellipse id="Oval-27" stroke="#FEFEFE" stroke-width="2" sketch:type="MSShapeGroup" cx="119.684211" cy="108.747899" rx="23.6842105" ry="23.7478992"></ellipse>
            <path d="M105,77.3193277 L132.695229,77.3193277" id="Path-222" stroke="#FEFEFE" stroke-width="2" sketch:type="MSShapeGroup"></path>
            <path d="M235.449875,83.6682596 L269.424605,116.585373 C274.220444,112.222092 276.368421,106.260544 276.368421,99.7478992 C276.368421,86.6322966 265.764639,76 252.684211,76 C239.603782,76 229,86.6322966 229,99.7478992 C229,112.863502 239.603782,123.495798 252.684211,123.495798 C259.114844,123.495798 264.94689,120.92605 269.214669,116.754829" id="Path-27" stroke="#FEFEFE" stroke-width="2" sketch:type="MSShapeGroup"></path>
            <path d="M237,132.319328 L264.695229,132.319328" id="Path-223" stroke="#FEFEFE" stroke-width="2" sketch:type="MSShapeGroup"></path>
            <path d="M170.315789,134.015089 L170.315789,76" id="Path-224" stroke="#FEFEFE" stroke-width="2" sketch:type="MSShapeGroup"></path>
            <path d="M153,75.3193277 L185.118204,75.3193277" id="Path-225" stroke="#FEFEFE" stroke-width="2" sketch:type="MSShapeGroup"></path>
            <path d="M153,81.3193277 L185.118204,81.3193277" id="Path-226" stroke="#FEFEFE" stroke-width="2" sketch:type="MSShapeGroup"></path>
            <path d="M204.315789,132.876146 L204.315789,74" id="Path-227" stroke="#FEFEFE" stroke-width="2" sketch:type="MSShapeGroup"></path>
            <path d="M196,103.319328 L212.253198,103.319328" id="Path-228" stroke="#FEFEFE" stroke-width="2" sketch:type="MSShapeGroup"></path>
            <path d="M196,98.3193277 L212.253198,98.3193277" id="Path-229" stroke="#FEFEFE" stroke-width="2" sketch:type="MSShapeGroup"></path>
            <path d="M338.370297,77 L338.370297,134.674206 L295,78.4430147 L302.80222,78.4430147 L338.370297,124.040669" id="Path-230" stroke="#FEFEFE" stroke-width="2" sketch:type="MSShapeGroup"></path>
            <path d="M294,78 L294,133.716071 L317.837361,109.113877" id="Path-231" stroke="#FEFEFE" stroke-width="2" sketch:type="MSShapeGroup"></path>
            <g id="Path-195-+-Oval-23-+-Shape-3" transform="translate(12.000000, 255.000000)" sketch:type="MSShapeGroup">
                <path d="M27.7522722,10.3846154 L348.877454,10.3846154" id="Path-195" stroke="#FFFFFF" opacity="0.464960354"></path>
                <ellipse id="Oval-23" opacity="0.75" fill="#FFFFFF" cx="342.330677" cy="10.3846154" rx="7.66932271" ry="7.61538462"></ellipse>
                <path d="M5.01860998,0.347080556 C5.16827184,0.102843384 5.4608439,-0.0451674347 5.73953754,0.0124137975 C6.05536533,0.061879554 6.31042815,0.359060544 6.32355638,0.687157632 C6.32918277,0.834781999 6.29167353,0.983952171 6.21552978,1.10916237 C5.99535055,1.46044653 5.76766947,1.80670682 5.54373932,2.15567228 C6.03360997,2.15644518 6.52348062,2.1483297 7.01297618,2.16494711 C9.13449871,2.23566768 11.1607478,3.3795633 12.456692,5.09424737 C13.0988501,5.93748394 13.5695911,6.92448036 13.7931461,7.97292253 C14.1389813,9.57167124 13.8782921,11.285196 13.1419857,12.7305235 C12.5058291,13.9818526 11.5200863,15.048458 10.3197906,15.7363411 C9.26203012,16.3527308 8.0366033,16.668075 6.82092888,16.6081751 C5.27067206,16.5478887 3.74292078,15.9407738 2.56400542,14.8992878 C1.6045191,14.057597 0.888842831,12.9353427 0.480367225,11.7095194 C0.138658063,10.7004953 -0.0068777819,9.62654731 0.000248973401,8.56032839 C0.0118768373,8.309908 0.159663237,8.0737863 0.376091542,7.95978319 C0.628153624,7.81834204 0.962736031,7.86162458 1.17166249,8.06451147 C1.33707823,8.21329519 1.4124718,8.44246077 1.40534504,8.66467022 C1.41284689,9.59601767 1.54487941,10.5339348 1.86520831,11.4080874 C2.23242375,12.4321832 2.87420682,13.356961 3.72379107,14.0143145 C4.59137975,14.6917635 5.65926777,15.0859437 6.74441004,15.155505 C7.73165319,15.2293171 8.73465023,14.9920361 9.59961326,14.4989243 C11.0043342,13.7074722 12.0448405,12.2725788 12.3978024,10.6649417 C12.6149809,9.69378982 12.5819728,8.66119216 12.270271,7.71554602 C11.620611,5.71102353 9.87493107,4.14048576 7.86706154,3.72234553 C7.10037271,3.55539861 6.3130538,3.61491209 5.53548728,3.60563726 C5.75904235,3.94339563 5.97697102,4.28540497 6.19752534,4.62548204 C6.31155343,4.79938509 6.35581433,5.02468615 6.29917538,5.22834595 C6.23353421,5.50002116 5.99797619,5.71604739 5.72941005,5.75585187 C5.47172158,5.80299892 5.19752905,5.68126678 5.04861737,5.46098958 C4.59475559,4.76769609 4.1506462,4.06744648 3.69828479,3.37299363 C3.51186387,3.12064098 3.47322936,2.75699038 3.6435213,2.48492872 C4.09813327,1.76960751 4.56287273,1.06162887 5.01860998,0.347080556 L5.01860998,0.347080556 Z" id="Shape" opacity="0.75" fill="#FFFFFF"></path>
            </g>
            <polygon id="Star-2" fill="#FFFFFF" sketch:type="MSShapeGroup" transform="translate(375.000000, 166.000000) rotate(37.000000) translate(-375.000000, -166.000000) " points="375 168.252316 372.1629 170 373.133073 167.105573 371 165.055728 373.814161 165.055728 375 162 376.110719 165.055728 379 165.055728 376.813704 167.105573 377.472136 170 "></polygon>
            <path d="M19,152.13651 L123.710463,37" id="Path-277" stroke="#F9DD5E" stroke-dasharray="20,100,40,50" sketch:type="MSShapeGroup"></path>
            <path d="M65,129.929688 L183.164062,0" id="Path-278" stroke="#11CDC5" stroke-dasharray="20,100,40,50" sketch:type="MSShapeGroup"></path>
            <path d="M77,157.942233 L161.525962,65" id="Path-279" stroke="#FC2D79" stroke-dasharray="20,100,40,50" sketch:type="MSShapeGroup"></path>
        </g>
    </g>
</svg>