<?xml version="1.0" encoding="UTF-8" standalone="no"?>
<svg width="100px" height="100px" viewBox="0 0 100 100" version="1.1" xmlns="http://www.w3.org/2000/svg" xmlns:xlink="http://www.w3.org/1999/xlink">
    <g id="helpers" transform="translate(-50.000000, -50.000000)" stroke="#979797" stroke-width="0.2">
        <rect id="rect" x="50" y="50" width="100" height="100" fill="none"></rect>
        <path d="M100,0 L100,200" id="horizontal-center-guide" fill="#000000"></path>
        <path d="M0,100 L205,100" id="vertical-center-guide" fill="#000000"></path>
    </g>
    <path d="M0,99.9127989 C1.984375,99.9127989 2.70793815,99.9858631 4.04394531,99.9127989 C4.73828125,98.7280302 5.81738611,94.7145747 5.81738611,94.7145747 L7.85351562,104.500689 L9.27734375,97.1764707 L11.072431,102.872761 L12.4135742,98.7280302 L14.050293,101.277545 L15.6270003,98.7280289 L17.1100006,99.9127989 C50,99.0445484 50,93.3239808 50,49.9127989 C50,35.8094958 51.1576883,7.13930309 52.4855728,-0.087200974 C54.3235397,-10.0896333 56.8798986,-2.04258604 57.5555038,-0.0872010243 C58.0496101,1.34287676 59.5105476,4.28623676 61.8531456,-0.0872013577 C61.8531456,-0.0872011185 63.0574226,-2.4743104 65.5352859,-0.0872013577 C67.220314,1.38467407 70.6500015,-0.0872011185 79.9632797,-0.0872013577 C85.2195282,-0.0872013577 97.2131235,-0.0872011369 100,-0.0872011369" id="easing-path" stroke="#000000" stroke-width="0.2" fill="none"></path>
</svg>