<?xml version="1.0" encoding="UTF-8" standalone="no"?>
<svg width="100px" height="100px" viewBox="0 0 100 100" version="1.1" xmlns="http://www.w3.org/2000/svg" xmlns:xlink="http://www.w3.org/1999/xlink">
    <g id="helpers" transform="translate(-50.000000, -50.000000)" stroke="#979797">
        <rect id="rect" stroke-width="0.2" x="50" y="50" width="100" height="100" fill="none"></rect>
        <path d="M100,0 L100,200" id="horizontal-center-guide" stroke-width="0.1" fill="#000000"></path>
        <path d="M0,100 L205,100" id="vertical-center-guide" stroke-width="0.1" fill="#000000"></path>
    </g>
    <path d="M0,100 C0,100 6.86480761,99.9620446 16.3642461,100 C18.3420122,101.410541 17.7461573,102.3597 21.4635541,99.9486603 C22.4315542,99.9486603 22.0894527,103.407952 24.4702692,99.9512317 C25.7707024,99.9973854 28.6047459,41.7056614 30.7671486,99.9695733 C32.779686,125.223807 34.3119125,102.505655 34.7164192,100 C34.7164192,97.5330608 37.8332109,52.8774855 38.867691,100 C40.0878906,115.455371 40.570773,101.897627 42.8020554,100 L100,100" id="property-curve" stroke="#000000" stroke-width="0.5" fill="none"></path>
</svg>